<?xml version="1.0" encoding="UTF-8"?>
<svg id="Layer_2" data-name="Layer 2" xmlns="http://www.w3.org/2000/svg" viewBox="0 0 512.38 450.53">
  <defs>
    <style>
      .cls-1 {
        fill: #1b1626;
        fill-rule: evenodd;
        stroke: #fff;
        stroke-miterlimit: 10;
        stroke-width: 5px;
      }
    </style>
  </defs>
  <g id="Layer_2-2" data-name="Layer 2">
    <g id="Layer_1-2" data-name="Layer 1-2">
      <path class="cls-1" d="M22.35,130.46c-3.42-2.87-3.87-8.04-1.01-11.46,5.12-6.12,10-11.53,14.9-16.49,2.88-2.9,5.75-5.65,8.68-8.28-1.15-1.37-2.29-2.78-3.4-4.21-2.71-3.44-2.16-8.5,1.22-11.28l1.1-.9c.17-.15.57-.48,1.46-1.22,11.35-9.98,23.57-18.92,36.51-26.73-.73-1.16-1.47-2.33-2.22-3.51-.83-1.3-1.27-2.82-1.27-4.36,0-2.77,1.42-5.36,3.75-6.85.26-.17.53-.32.78-.44,14.42-7.83,29.42-14.54,44.87-20.08,14.83-5.3,30.09-9.32,45.62-12.03h.02c3.14-.54,6.33.83,8.11,3.47,5.45,7.28,10.54,14.83,15.25,22.61,19.75,3.57,39.78,5.35,59.85,5.32,19.91-.06,39.76-1.93,59.33-5.6,4.68-7.7,9.73-15.17,15.07-22.32,1.78-2.65,4.97-4.02,8.12-3.49h.02c15.52,2.71,30.78,6.73,45.62,12.03,15.44,5.53,30.43,12.25,44.83,20.07.28.13.56.29.82.46,2.33,1.49,3.74,4.08,3.74,6.84,0,1.55-.44,3.06-1.26,4.36-.75,1.19-1.5,2.36-2.23,3.52,12.94,7.81,25.16,16.75,36.51,26.73,1,.82,1.29,1.07,1.33,1.12h0l1.22,1.01c3.38,2.79,3.93,7.83,1.22,11.28-1.13,1.44-2.26,2.84-3.41,4.21,2.93,2.63,5.81,5.37,8.69,8.28,4.91,4.96,9.79,10.37,14.9,16.49,2.86,3.42,2.4,8.58-1.01,11.44,0,0-.28.22-.45.34-.04.03-.08.06-.12.08-.5.37-1,.73-1.5,1.09,3.07,4.11,5.9,8.38,8.49,12.81,4.82,8.3,9.08,16.91,12.75,25.77,1.58,3.76.09,8.16-3.42,10.18-11.33,6.64-23.68,11.38-36.55,14.02h-.03c-9.9,1.95-20.05,2.38-30.07,1.26l-.17.46,1,1.42c1.03,1.48,2.05,3.18,2.46,4.56,1.2,3.95,3.21,11.01,2.92,16.63-.39,7.45-3.3,19.33-5.12,28.98-2.67,14.13-9.89,37.69-11.7,57.88h4.75c4.47,0,8.13,3.67,8.13,8.13v18.02c0,4.46-3.67,8.13-8.13,8.13h-6.3c-.11,9.31,0,19.14.29,29.54h6.03c4.47,0,8.13,3.67,8.13,8.13v18.02c0,4.46-3.67,8.13-8.13,8.13h-4.52c.54,9.33,1.18,19.07,1.93,29.2.32,4.16-2.63,7.93-6.73,8.62-45.72,7.97-125.26,4.8-171.67,4.93-43.85.08-126.02,4.47-169.12-3.72-4.09-.7-7.04-4.43-6.74-8.59.74-10.17,1.39-19.92,1.92-29.24h-4.52c-4.46,0-8.13-3.67-8.13-8.13v-18.01c0-4.46,3.67-8.13,8.13-8.13h6.03c.3-10.4.42-20.23.3-29.54h-6.33c-4.46,0-8.13-3.67-8.13-8.13v-18.02c0-4.46,3.67-8.13,8.13-8.13h4.76c-1.79-20.35-8.9-45.59-11.65-57.77-.58-2.55-1.89-4.94-3.03-7.36-1.45-3.07-2.66-6.19-2.72-9.52-.09-4.88,2-12.51,3.71-20.32,1.25-5.72,2.35-11.57,1.7-16.22-8.93,1.08-13.69.74-23.53-1.2h-.03c-12.87-2.65-25.22-7.38-36.53-14.01-3.54-2.03-5.02-6.43-3.45-10.18,3.68-8.87,7.96-17.49,12.78-25.79,2.59-4.43,5.42-8.71,8.5-12.81M45.33,77.14c-.26.04-.53.12-.78.24l.78-.24ZM414.92,317.22l-.5-.5.5.53v.06l-3-2.21c.67,1.99,2.44,2.25,3,2.28-.06,1.05-.12,2.11-.17,3.18-.17,3.59-.31,7.26-.41,11.01v.72c-.35,13.94-.19,29.03.39,45.44v.61c.03.92.07,1.84.11,2.76.18,4.8.41,9.72.67,14.74v.03c0,.18.01.36.03.53.55,10.6,1.24,21.75,2.08,33.43-43.64,7.37-120.94,3.88-165.2,3.99-41.72.1-121.65,4.87-162.69-2.64.76-10.69,1.41-20.93,1.94-30.71h.14c.92,0,1.8-.38,2.44-1.06.55-.58.86-1.35.9-2.14l-2.86,2.72-.48.48-.02-.03h.02l-.14-.14c.05-.88.09-1.76.14-2.64.01-.18.01-.36,0-.53v-.03c.26-5,.48-9.89.67-14.65h.11c.92,0,1.79-.38,2.43-1.05.59-.62.91-1.45.91-2.3.01.21.01.41,0,.61-.21,5.64-.46,11.44-.77,17.4.01.25,0,.5-.01.71-.5,9.73-1.13,19.91-1.87,30.56,41.66,6.75,118.56,2.18,159.14,2.08,43.12-.11,117.7,3.24,161.66-3.47-.74-10.57-1.36-20.68-1.85-30.28-.03-.27-.04-.53-.04-.81-.31-5.98-.57-11.8-.77-17.46-.01-.21-.01-.41,0-.62v-.06c-.58-16.45-.73-31.57-.39-45.54v-.81c.1-3.76.23-7.44.41-11.05,0,0,.22-4.15.36-6.34l-.02-.02c0-.33.02-.66.06-.96,1.06-22.03,8.58-48.98,11.35-64.86,1.73-9.92,5.05-20.18,5.19-29.77.14-9.06-1.6-20.64-4.12-26.89-10.54-26.14-36.96-45.93-63.03-62.2-27.04-16.88-53.76-30.09-63.76-42.06-3.86-4.61-3.7-11.78-1.44-19.05,2.88-9.26,8.87-18.66,9.91-20.97.12-.26.23-.51.34-.77-16.43,2.45-33.01,3.69-49.63,3.73-16.83.03-33.64-1.16-50.3-3.57.09.2.18.4.27.6,1.05,2.31,6.87,9.84,9.88,17.23,2.53,6.2,2.92,12.31-.57,16.35-6.08,7.05-13.95,12.59-23.95,19.01-22.45,14.42-55.89,33.6-103.53,87.58-2.82,3.2-4.93,8.68-6.69,14.6-2.86,9.61-4.62,20.37-5.95,25.85-.84,3.45-.15,8.6.07,11.29,1.51,2.09,5.01,6.29,5.94,9.83,3.29,12.49,12.62,43.06,13.68,65.29.04.32.06.63.06.95v.07c0,.88-.36,1.72-.98,2.35-.58.58-1.35.92-2.16.97-.06-1.1-.13-2.19-.2-3.27v-.06c0-.23-.02-.45-.05-.67-1.01-22.04-10.31-52.39-13.58-64.78-.96-3.63-5-7.96-6-9.55,0-2.2-1.07-8.92-.03-13.2,2.23-9.17,5.7-33.16,13.39-41.87,68.51-77.62,107.85-83.8,127.45-106.56,6.87-7.98-8.09-26.19-9.83-30.02-.92-2.04-1.91-4.12-2.98-6.23,18.53,3.02,37.27,4.51,56.04,4.48,18.57-.04,37.1-1.61,55.42-4.69-1.11,2.19-2.14,4.33-3.08,6.44-1.71,3.78-16.99,26.89-8.96,36.51,19.73,23.61,105.74,51.66,127.33,105.16,2.64,6.55,4.5,18.68,4.36,28.19-.14,9.75-3.47,20.2-5.24,30.29-2.75,15.81-10.28,42.66-11.31,64.57-.03.22-.05.45-.05.67l.02.07c-.06,1.03-.12,2.07-.18,3.11l-.02.03ZM95.53,315.33c.14,2.2.36,6.35.36,6.35.17,3.61.31,7.29.41,11.05.01.21.01.42,0,.62v.22l-3.27,3.27c-.02-1.1-.04-2.19-.07-3.27v-.23c.01-.17.01-.33,0-.49-.1-3.75-.23-7.42-.41-11.01-.05-1.05-.1-2.09-.16-3.13.85-.06,1.65-.43,2.24-1.05.59-.63.92-1.47.91-2.33h-.01ZM95.91,379.14l-3.34,3.34-.1-.11v-.12c.03-.88.07-1.76.09-2.63.01-.16.01-.32,0-.48v-.13c.54-15.12.71-29.1.47-42.11.87-.02,1.7-.38,2.31-1.01.61-.62.95-1.46.95-2.33.35,13.96.19,29.06-.39,45.5v.07h.01ZM412.17,396.06c.03.71.27,1.27.59,1.7-.34-.49-.55-1.07-.59-1.7ZM415.47,399.19c-.33-.42-3.29-4.07-3.3-3.34l3.3,3.34ZM83.31,328.52h-4.57v-8.42h4.2c.04.72.07,1.44.11,2.17.1,2.06.19,4.14.26,6.25ZM424.46,382.66h4.13v8.42h-3.75c-.13-2.84-.26-5.65-.38-8.42ZM82.47,392.34h-3.75v-8.42h4.13c-.11,2.77-.23,5.57-.38,8.42ZM424.01,327.27c.07-2.11.16-4.19.26-6.25.03-.73.07-1.45.11-2.17h4.2v8.42h-4.57ZM38.44,126.03c-1.26-.86-2.53-1.75-3.83-2.66,3.72-4.3,7.3-8.2,10.85-11.79s7.02-6.84,10.62-9.95c14.29,14.43,30.47,26.86,48.1,36.94,2.42,1.46,4.5,2.73,6.12,3.78-5.14,4.91-10,9.91-14.59,15.02-1.56-.75-3.4-1.56-5.56-2.53-17.77-7.71-34.75-17.13-50.7-28.12-.31-.27-.65-.5-1.01-.69ZM40.15,123.16l.03.02c.47.26.91.56,1.32.91,15.72,10.83,32.45,20.1,49.97,27.7.01,0,2.38,1.06,3.41,1.52,3.21-3.51,6.55-6.97,10.03-10.39-.76-.47-1.57-.96-2.39-1.46-16.98-9.71-32.63-21.56-46.58-35.26-2.72,2.43-5.39,4.97-8.1,7.72-2.72,2.75-5.45,5.68-8.26,8.84.19.13.38.26.57.4ZM312.75,65.73c1.34-4.5,2.99-8.9,4.93-13.17,2.19-4.85,4.63-9.57,7.31-14.17.12-.18.22-.37.32-.56,4.45-7.57,9.29-14.9,14.5-21.97,13.81,2.56,27.39,6.23,40.61,10.95,13.3,4.76,26.25,10.44,38.77,17-13.47,21.31-23.91,38.7-31.33,52.14-4.47,7.78-8.41,15.87-11.78,24.19-20.64-15.49-42.7-29-65.87-40.36.29-4.67,1.12-9.29,2.46-13.78.03-.09.06-.18.08-.28h0ZM315.99,66.54s-.02.06-.02.07c-.04.15-.1.36-.1.36-1.06,3.53-1.77,7.16-2.15,10.83,21.34,10.61,41.72,23.03,60.92,37.13,3.04-7.05,6.48-13.93,10.3-20.6,7.08-12.84,16.91-29.24,29.48-49.21-11.38-5.79-23.11-10.85-35.13-15.15-12.4-4.43-25.11-7.91-38.04-10.42-4.65,6.43-9,13.07-13,19.87-.13.24-.27.48-.46.78-2.59,4.46-4.96,9.04-7.08,13.74-1.86,4.09-3.44,8.3-4.73,12.6h.01ZM202.4,72.47c1.28,4.36-45.34,32.19-65.99,47.68-3.37-8.32-7.31-16.4-11.78-24.19-7.42-13.45-17.86-30.83-31.33-52.14,12.51-6.56,25.47-12.24,38.77-17,13.22-4.72,26.81-8.39,40.61-10.95,5.3,7.19,10.21,14.65,14.73,22.37.06.11.12.22.19.33,2.64,4.54,5.06,9.21,7.23,14,1.94,4.26,7.56,19.91,7.56,19.91h0ZM198.79,72.29c-1.38-3.81-5.41-14.89-6.99-18.34-2.12-4.67-4.47-9.22-7.03-13.63-.09-.14-.17-.28-.25-.42-4.09-7-8.53-13.79-13.29-20.36-12.92,2.51-25.64,6-38.04,10.43-12.02,4.3-23.76,9.36-35.13,15.15,12.57,19.97,22.4,36.38,29.48,49.21,3.83,6.67,7.27,13.56,10.31,20.62,17.28-12.45,46.9-30.72,58.03-39.91,1.14-.94,2.29-2.1,2.9-2.75h.01ZM37.06,136.72c15.28,10.21,32.39,19.55,49.24,26.87l2.97,1.32c-4.78,5.77-9.22,11.68-13.3,17.72-10.04,1.61-20.29,1.42-30.26-.56-10.09-2.05-19.83-5.59-28.89-10.49,3.03-6.95,6.47-13.71,10.29-20.26,2.41-4.16,5.07-8.17,7.97-12.01v.02s1.98-2.61,1.98-2.61ZM37.86,141.18c-2.86,3.78-5.49,7.74-7.87,11.84-3.23,5.54-6.19,11.24-8.85,17.07,7.98,4.01,16.46,6.94,25.21,8.72,9.12,1.8,18.47,2.05,27.66.75,3.1-4.53,6.4-8.98,9.9-13.36-16.03-7.03-31.44-15.4-46.06-25.03h.01ZM439.9,183.11c-1.1-.13-2.2-.29-3.3-.46-4.1-6.04-8.53-11.95-13.3-17.72l2.97-1.32c17.17-7.45,33.62-16.46,49.15-26.91,3.69,4.63,7.04,9.52,10.01,14.64,3.82,6.55,7.25,13.31,10.29,20.26-9.06,4.9-18.79,8.43-28.89,10.49-8.87,1.76-17.96,2.1-26.93,1.02h0ZM438.53,179.57c9.19,1.31,18.53,1.06,27.64-.75,8.76-1.79,17.24-4.72,25.21-8.72-2.66-5.83-5.61-11.53-8.85-17.07-2.38-4.1-5-8.05-7.86-11.83-14.61,9.63-30.02,17.99-46.04,25.02,3.48,4.37,6.78,8.82,9.9,13.35ZM470.28,128.59c-15.15,10.2-31.2,18.99-47.96,26.27-2.15.96-3.99,1.78-5.56,2.53-4.59-5.12-9.45-10.13-14.59-15.02,1.62-1.05,3.71-2.31,6.12-3.78,17.63-10.08,33.8-22.51,48.1-36.94,3.59,3.11,7.1,6.39,10.62,9.95s7.13,7.49,10.85,11.79c-1.3.91-2.58,1.8-3.83,2.66-.36.18-.68.41-.98.67h-.01s-.02.02-.02.02c-.73.5-1.45,1-2.18,1.49l-.56.36ZM470.79,124.26l.04-.02h.02v-.03h-.02l-.04.05h0ZM471.01,124.07c.4-.33.83-.62,1.28-.87.19-.14.4-.27.6-.41-2.82-3.17-5.56-6.11-8.26-8.84-2.69-2.72-5.37-5.28-8.1-7.72-13.94,13.69-29.58,25.53-46.54,35.24-.85.52-1.66,1.01-2.42,1.47,3.47,3.41,6.82,6.88,10.03,10.39,1.03-.47,3.39-1.52,3.4-1.52,17.53-7.61,34.28-16.9,50.01-27.74h0ZM394.99,135.7c-3.46-3.09-7.04-6.13-10.73-9.13l-.2-.16c3.22-8.99,7.3-17.64,12.2-25.84,6.06-11.01,14.28-24.82,24.64-41.43,13.17,7.59,25.55,16.49,36.95,26.54-15.44,17.95-33.87,33.08-54.48,44.73-3.42,2.07-6.25,3.78-8.38,5.3h0ZM395.26,131.49c1.81-1.17,3.94-2.47,6.37-3.94.03-.02.06-.03.09-.05,19.31-10.91,36.68-24.94,51.41-41.5-9.72-8.31-20.13-15.79-31.12-22.34-9.52,15.32-17.13,28.16-22.83,38.52-.02.04-.04.07-.06.11-4.38,7.33-8.1,15.05-11.11,23.04,2.47,2.03,4.89,4.08,7.25,6.16h0ZM125.85,128.52c-.24-.29-.43-.62-.56-.99-.13-.36-.26-.72-.39-1.08-.02.41.04.83.19,1.24.13.37.32.71.56,1-2.78,2.31-5.5,4.65-8.15,7.01-2.13-1.51-4.96-3.23-8.38-5.3-20.61-11.64-39.05-26.78-54.48-44.73,11.41-10.05,23.78-18.94,36.95-26.54,10.35,16.61,18.57,30.42,24.64,41.43,4.9,8.2,8.98,16.85,12.2,25.84l-.2.16c-.8.65-1.59,1.3-2.38,1.95h0ZM124.48,125.33c-3-8-6.72-15.71-11.11-23.04-.02-.03-.04-.07-.06-.1-5.71-10.36-13.33-23.2-22.84-38.52-10.99,6.55-21.4,14.03-31.12,22.34,14.73,16.56,32.1,30.59,51.41,41.5.03.02.06.03.09.05,2.43,1.47,4.56,2.77,6.37,3.94,2.36-2.08,4.78-4.13,7.25-6.16h.01Z"/>
    </g>
  </g>
</svg>