<?xml version="1.0" encoding="UTF-8"?>
<svg id="Layer_2" data-name="Layer 2" xmlns="http://www.w3.org/2000/svg" viewBox="0 0 150 150">
  <defs>
    <style>
      .cls-1 {
        fill: #fff;
      }
    </style>
  </defs>
  <g id="Layer_1-2" data-name="Layer 1">
    <path class="cls-1" d="M149.19,100.82c-1.11,1.28-4.22,3.37-5.73,4.5-2.41,1.81-12.66,9.37-14.83,9.8-1.86.37-5-1.56-6.95-2.1-1-.27-5.03-.68-5.24-1.29-.26-.78.94-6.12,1.24-7.3.75-2.91,2.46-8.18,3.71-10.84.94-2.01,3.31-4.24,4.55-6.43,4.18-7.32,5.72-18,5.78-26.36,0-.4.36-.68-.35-.58-10.43,6.75-20.28,14.38-30.57,21.33-2.66,1.8-8.71,6.37-11.57,6.82-2.42.38-4.18-.45-6.3-1.41,2.35,5.28,7.12,10.06,12.74,11.73,1.31.39,6.14.99,6.66,1.33.45.3,3.32,3.77,3.66,4.36.86,1.53,1.69,4.43,1.83,6.18.08.97.15,4.24-.07,5-.09.31-2.08,2.4-2.55,3.09-4.5,6.69-3.34,14.75-5.35,22.26-.33,1.23-2.42,8.05-3.71,7.82-1.04-1.02-1.55-3.21-1.87-4.68-.36-1.61-1.66-12.33-2.62-12.53-1.04.05-1.37,1.16-1.82,2.01-2.42,4.52-3.45,11.3-5.79,15.29-.26.44-.56.79-.96,1.11-.69-.51-1.01-1.13-1.39-1.87-2.08-4.1-2.96-9.28-5.02-13.38-1.98-3.92-2.95-.89-4.16,1.69-1.95,4.17-3.18,8.86-5.01,13.09-.19.46-1.03.67-1.41.44-.68-.42-4.75-13.22-5.52-15.11-.36-.87-1.4-3.86-2.36-3.87-1.85,4.27-1.43,9.29-2.97,13.66-1.86,5.28-3.2,4.34-4.81-.21s-2-9.8-2.15-14.78c-1.78-8.35-.12-16.99-.52-25.49.14-.7,2.96-4.16,3.5-4.51.69-.45,3.5-.88,4.78-1.44,3.16-1.39,6.46-4.45,8.48-7.24.37-.52,2.47-3.6,2.12-3.96-2.54.77-4.07,1.93-6.94,1.47-10.8-6.39-20.75-14.28-31.17-21.32l-11.05-7.18c.47,6.71.99,13.52,3.05,19.97,2.24,7.04,7.21,11.59,8.9,18.71,1.17,4.93.52,9.22.48,14.2-3.17.1-6.06,3.21-9.25,2.03-2.25-.83-8.35-5.47-10.67-7.12-2.56-1.82-6.34-4.21-8.5-6.33-2.49-2.44-1.46-4.1.18-6.66,2.14-3.36,6.52-7.36,7.45-11.24,1.13-4.71-1.41-13.37-1.7-18.64C5.92,37.33,28.47,0,74.9,0s64.86,24.53,67.57,52.95c.88,9.28-1.05,16.38-1.77,25.25-.66,8.15,2.39,9.03,6.46,14.9,1.56,2.24,4.17,5.23,2.02,7.72ZM74.85,95.65c-2.29.1-5.99,7-6.97,9.03-1.62,3.35-5.04,11.26-3.52,14.73,1.2,2.73,4.64.96,6.28-.37,1.85-1.51,2.84-3.72,4.16-5.64,1.36-.32,3.8,8.37,8.81,7.36,4.1-.82,1.42-7.92.52-10.49s-2.22-5.45-3.51-7.77c-.79-1.42-4.12-6.93-5.77-6.86Z"/>
  </g>
</svg>