<?xml version="1.0" encoding="UTF-8"?>
<svg id="Layer_2" data-name="Layer 2" xmlns="http://www.w3.org/2000/svg" viewBox="0 0 398.64 442.02">
  <defs>
    <style>
      .cls-1 {
        fill: #1b1626;
        stroke: #fff;
        stroke-miterlimit: 10;
        stroke-width: 5px;
      }
    </style>
  </defs>
  <g id="Layer_2-2" data-name="Layer 2">
    <g id="Layer_2-2" data-name="Layer 2-2">
      <path class="cls-1" d="M199.27,18.2c.52,0,.85.16.93.22,42.64,48.92,105.09,59.2,149.99,59.2,11.75,0,21.13-.69,26.74-1.1,1.67-.12,3.55-.26,4.12-.27.08,0,.16,0,.22.01v14.13h.06v137.06c0,24.82-3.02,45.47-9.24,63.14-6.25,17.76-16.1,33.55-30.1,48.27-26.24,27.56-67.37,52.13-141.94,84.8l-.06.02-.06.02c-.19.08-.4.13-.64.13s-.51-.05-.72-.15l-1.4-.61c-73.71-32.39-114.48-56.83-140.53-84.2-14.02-14.72-23.87-30.51-30.11-48.27-6.21-17.67-9.23-38.32-9.23-63.15l-.02-151.11c.24-.04.54-.06.88-.06.3,0,.6.02.93.05,3.46.38,14,1.53,28.51,1.53,36.83,0,105.4-7.73,150.88-59.52.08-.05.35-.16.77-.16M199.27,2.51c-4.29,0-8.57,1.69-11.59,5.14-41.35,47.12-103.99,54.54-140.06,54.54-13.75,0-23.63-1.08-26.99-1.45-.83-.09-1.65-.14-2.44-.14-9.33,0-15.69,6.12-15.69,14.09l.02,152.78c0,52.35,12.52,89.79,43.73,122.56,29.98,31.51,76.88,57.57,146.7,88.17h0c1.98.86,4.15,1.32,6.36,1.32s4.32-.44,6.4-1.36c69.82-30.59,116.69-56.64,146.7-88.15,31.19-32.77,43.73-70.21,43.73-122.56V74.69h-.06c0-7.81-6.76-14.14-15.03-14.14h-.15c-3.28.03-14.72,1.37-30.72,1.37-36.94,0-98.18-7.16-139.14-54.19-3.03-3.46-7.41-5.23-11.78-5.23h.02ZM199.27,18.2c.52,0,.85.16.93.22,42.64,48.92,105.09,59.2,149.99,59.2,11.75,0,21.13-.69,26.74-1.1,1.67-.12,3.55-.26,4.12-.27.08,0,.16,0,.22.01v14.13h.06v137.06c0,24.82-3.02,45.47-9.24,63.14-6.25,17.76-16.1,33.55-30.1,48.27-26.24,27.56-67.37,52.13-141.94,84.8l-.06.02-.06.02c-.19.08-.4.13-.64.13s-.51-.05-.72-.15l-1.4-.61c-73.71-32.39-114.48-56.83-140.53-84.2-14.02-14.72-23.87-30.51-30.11-48.27-6.21-17.67-9.23-38.32-9.23-63.15l-.02-151.11c.24-.04.54-.06.88-.06.3,0,.6.02.93.05,3.46.38,14,1.53,28.51,1.53,36.83,0,105.4-7.73,150.88-59.52.08-.05.35-.16.77-.16"/>
    </g>
  </g>
</svg>